<?xml version="1.0" encoding="UTF-8"?>
<svg id="Layer_2" data-name="Layer 2" xmlns="http://www.w3.org/2000/svg" viewBox="0 0 287.66 412.42">
  <defs>
    <style>
      .cls-1 {
        fill: #231f20;
      }
    </style>
  </defs>
  <g id="text">
    <g>
      <path class="cls-1" d="M106.16,269.21C47.63,269.21,0,221.58,0,163.05v-56.88C0,47.63,47.63,0,106.16,0s106.16,47.63,106.16,106.16v56.88c0,58.54-47.63,106.16-106.16,106.16ZM106.16,40.76c-36.06,0-65.4,29.34-65.4,65.4v56.88c0,36.06,29.34,65.4,65.4,65.4s65.4-29.34,65.4-65.4v-56.88c0-36.06-29.34-65.4-65.4-65.4Z"/>
      <polygon class="cls-1" points="178.59 412.42 178.59 1.87 219.36 1.87 219.36 341.08 266.96 313.02 287.66 348.13 178.59 412.42"/>
    </g>
  </g>
</svg>