<?xml version="1.0" encoding="UTF-8"?>
<svg id="Layer_2" data-name="Layer 2" xmlns="http://www.w3.org/2000/svg" viewBox="0 0 333.14 482.08">
  <defs>
    <style>
      .cls-1 {
        fill: #231f20;
      }
    </style>
  </defs>
  <g id="text">
    <g>
      <path class="cls-1" d="M106.18,482.08c-58.56,0-106.18-47.63-106.18-106.16v-56.9c0-58.54,47.63-106.16,106.16-106.16h.02c58.54,0,106.16,47.63,106.16,106.16v56.9c0,58.54-47.63,106.16-106.16,106.16ZM106.18,253.61c-36.06,0-65.42,29.34-65.42,65.4v56.9c0,36.06,29.34,65.4,65.4,65.4s65.42-29.34,65.42-65.4v-56.9c0-36.06-29.34-65.4-65.4-65.4Z"/>
      <rect class="cls-1" x="178.59" width="40.76" height="397.71"/>
      <path class="cls-1" d="M255.88,478.42c-42.61,0-77.28-30.89-77.28-68.87v-94.14h40.76v94.14c0,15.23,16.72,28.1,36.52,28.1s36.5-12.88,36.5-28.1v-94.14h40.76v94.14c0,37.98-34.65,68.87-77.26,68.87Z"/>
    </g>
  </g>
</svg>