<?xml version="1.0" encoding="UTF-8"?>
<svg id="Layer_2" data-name="Layer 2" xmlns="http://www.w3.org/2000/svg" viewBox="0 0 338.84 520.59">
  <defs>
    <style>
      .cls-1 {
        fill: #231f20;
      }
    </style>
  </defs>
  <g id="text">
    <g>
      <path class="cls-1" d="M220.21,520.59h-101.61c-65.4,0-118.6-53.22-118.6-118.62v-37.12c0-65.4,53.2-118.6,118.6-118.6h101.61c65.4,0,118.62,53.2,118.62,118.6v37.12c0,65.4-53.22,118.62-118.62,118.62ZM118.6,287.01c-42.93,0-77.84,34.91-77.84,77.84v37.12c0,42.93,34.91,77.86,77.84,77.86h101.61c42.93,0,77.86-34.93,77.86-77.86v-37.12c0-42.93-34.93-77.84-77.86-77.84h-101.61Z"/>
      <path class="cls-1" d="M220.21,274.35h-101.61C53.2,274.35,0,221.13,0,155.72v-37.12C0,53.2,53.2,0,118.6,0h101.61c65.4,0,118.62,53.2,118.62,118.6v37.12c0,65.4-53.22,118.62-118.62,118.62ZM118.6,40.76c-42.93,0-77.84,34.91-77.84,77.84v37.12c0,42.93,34.91,77.86,77.84,77.86h101.61c42.93,0,77.86-34.93,77.86-77.86v-37.12c0-42.93-34.93-77.84-77.86-77.84h-101.61Z"/>
    </g>
  </g>
</svg>