<?xml version="1.0" encoding="UTF-8"?>
<svg id="Layer_2" data-name="Layer 2" xmlns="http://www.w3.org/2000/svg" viewBox="0 0 358.4 501.88">
  <defs>
    <style>
      .cls-1 {
        fill: #231f20;
      }
    </style>
  </defs>
  <g id="text">
    <g>
      <path class="cls-1" d="M40.76,365.23H0v-186.02C0,80.39,80.39,0,179.19,0s179.21,80.39,179.21,179.21h-40.76c0-76.35-62.1-138.45-138.45-138.45S40.76,102.86,40.76,179.21v186.02Z"/>
      <path class="cls-1" d="M202.22,501.88h-57.92C64.73,501.88,0,437.16,0,357.58s64.73-144.28,144.3-144.28h57.92c79.55,0,144.28,64.73,144.28,144.28s-64.73,144.3-144.28,144.3ZM144.3,254.07c-57.08,0-103.54,46.43-103.54,103.52s46.45,103.54,103.54,103.54h57.92c57.08,0,103.52-46.45,103.52-103.54s-46.43-103.52-103.52-103.52h-57.92Z"/>
    </g>
  </g>
</svg>