<?xml version="1.0" encoding="UTF-8"?>
<svg id="Layer_2" data-name="Layer 2" xmlns="http://www.w3.org/2000/svg" viewBox="0 0 217.37 466.58">
  <defs>
    <style>
      .cls-1 {
        fill: #231f20;
      }
    </style>
  </defs>
  <g id="text">
    <path class="cls-1" d="M77.03,466.58H0v-40.76h77.03c12.7,0,28.82-6.57,34.51-14.07,1.79-2.37,1.51-3.36,1.29-4.18-25.14-90.22,16.54-151.15,42.08-178.35-28.94-30.63-81.7-101.05-40.64-173.9-4.34-5.39-21.89-14.55-36.88-14.55H0V0h77.38c25.08,0,60.09,13.79,72.91,36.06,7.05,12.22,7.07,26.15.08,38.21-38.53,66.32,46.41,138.89,47.27,139.6l19.72,16.6-20.68,15.37c-2.85,2.15-71.19,55.27-44.6,150.77,3.84,13.71.98,27.84-8.08,39.77-15.74,20.74-45.76,30.19-66.97,30.19Z"/>
  </g>
</svg>