<?xml version="1.0" encoding="UTF-8"?>
<svg id="Layer_2" data-name="Layer 2" xmlns="http://www.w3.org/2000/svg" viewBox="0 0 217.27 466.58">
  <defs>
    <style>
      .cls-1 {
        fill: #231f20;
      }
    </style>
  </defs>
  <g id="text">
    <path class="cls-1" d="M217.27,466.58h-77.38c-25.08,0-60.09-13.79-72.91-36.06-7.03-12.24-7.05-26.17-.04-38.23,38.29-65.94-46.47-138.89-47.33-139.6L0,236.07l20.58-15.35c2.85-2.15,71.19-55.27,44.6-150.77-3.84-13.73-.96-27.86,8.1-39.79C89.03,9.45,119.02,0,140.24,0h77.03v40.76h-77.03c-12.9,0-28.7,6.45-34.49,14.07-1.81,2.37-1.53,3.38-1.31,4.18,25.14,90.22-16.54,151.15-42.08,178.35,28.94,30.63,81.7,101.05,40.66,173.92,4.34,5.37,21.87,14.53,36.86,14.53h77.38v40.76Z"/>
  </g>
</svg>