<?xml version="1.0" encoding="UTF-8"?>
<svg id="Layer_2" data-name="Layer 2" xmlns="http://www.w3.org/2000/svg" viewBox="0 0 271.56 92.37">
  <defs>
    <style>
      .cls-1 {
        fill: #231f20;
      }
    </style>
  </defs>
  <g id="text">
    <g>
      <path class="cls-1" d="M271.56,72.45h-40.76v-22.79c-3.72-3.01-16.44-8.9-37.32-8.9-23.21,0-36.32,7.26-38.23,9.77.24-.3.92-1.61.92-3.48h-40.76C115.4,19.78,148.24,0,193.48,0s78.08,19.78,78.08,47.05v25.4Z"/>
      <path class="cls-1" d="M78.08,92.37C32.84,92.37,0,72.59,0,45.32v-25.4h40.76v22.79c3.72,3.01,16.44,8.9,37.32,8.9,23.21,0,36.32-7.26,38.23-9.77-.24.3-.92,1.61-.92,3.48h40.76c0,27.27-32.84,47.05-78.08,47.05Z"/>
    </g>
  </g>
</svg>