<?xml version="1.0" encoding="UTF-8"?>
<svg id="Layer_2" data-name="Layer 2" xmlns="http://www.w3.org/2000/svg" viewBox="0 0 387.3 486.32">
  <defs>
    <style>
      .cls-1 {
        fill: #231f20;
      }
    </style>
  </defs>
  <g id="text">
    <g>
      <rect class="cls-1" x="-67.48" y="220.78" width="526.16" height="40.77" transform="translate(-109.57 298.57) rotate(-61.61)"/>
      <path class="cls-1" d="M297.06,486.32c-49.76,0-90.24-40.48-90.24-90.26v-33.14c0-49.76,40.48-90.24,90.24-90.24s90.24,40.48,90.24,90.24v33.14c0,49.78-40.48,90.26-90.24,90.26ZM297.06,313.44c-27.29,0-49.48,22.19-49.48,49.48v33.14c0,27.29,22.19,49.5,49.48,49.5s49.48-22.21,49.48-49.5v-33.14c0-27.29-22.19-49.48-49.48-49.48Z"/>
      <path class="cls-1" d="M90.24,230.96C40.48,230.96,0,190.48,0,140.72v-33.14C0,57.82,40.48,17.34,90.24,17.34s90.26,40.48,90.26,90.24v33.14c0,49.76-40.48,90.24-90.26,90.24ZM90.24,58.1c-27.29,0-49.48,22.19-49.48,49.48v33.14c0,27.29,22.19,49.48,49.48,49.48s49.5-22.19,49.5-49.48v-33.14c0-27.29-22.21-49.48-49.5-49.48Z"/>
    </g>
  </g>
</svg>