<?xml version="1.0" encoding="UTF-8"?>
<svg id="Layer_2" data-name="Layer 2" xmlns="http://www.w3.org/2000/svg" viewBox="0 0 399.37 474.36">
  <defs>
    <style>
      .cls-1 {
        fill: #231f20;
      }
    </style>
  </defs>
  <g id="text">
    <path class="cls-1" d="M357.75,474.36l-83.87-79.93c-62.42,63.91-164.3,99.6-229.57,49.54l-1.95-1.71C13.58,413.69-.67,382.78.02,350.36c1.07-50.91,38.73-97.09,81.68-139.07L4.32,137.55v-43.65C4.32,42.12,52.09,0,110.83,0s106.5,42.12,106.5,93.9v42.47l-4.94,5.73c-17.2,19.98-39.29,40.13-62.68,61.46-2.89,2.63-5.79,5.27-8.7,7.94l128.54,122.51c13.89-21.63,24.62-45.3,35.11-68.43,17.55-38.77,35.71-78.86,68.51-106.36l26.19,31.25c-25.7,21.54-41.18,55.73-57.58,91.93-12.18,26.89-24.66,54.42-42.24,80.19l86.3,82.26-28.1,29.5ZM70.12,412.36c46.71,34.51,125.83,3.38,174.23-46.06l-133.11-126.86c-37.4,36.4-69.7,74.96-70.48,111.78-.44,20.8,9.18,40.8,29.36,61.14ZM45.09,120.08l66.36,63.25c3.62-3.32,7.22-6.61,10.81-9.87,20.16-18.39,39.33-35.87,54.32-52.37v-27.19c0-29.3-29.5-53.14-65.74-53.14s-65.74,23.84-65.74,53.14v26.17Z"/>
  </g>
</svg>