<?xml version="1.0" encoding="UTF-8"?>
<svg id="Layer_2" data-name="Layer 2" xmlns="http://www.w3.org/2000/svg" viewBox="0 0 326.46 512.49">
  <defs>
    <style>
      .cls-1 {
        fill: #231f20;
      }
    </style>
  </defs>
  <g id="text">
    <g>
      <path class="cls-1" d="M186.16,512.49h-45.86C62.93,512.49,0,449.56,0,372.19v-3.24c0-77.36,62.93-140.3,140.3-140.3h45.86c77.36,0,140.3,62.93,140.3,140.3v3.24c0,77.36-62.93,140.3-140.3,140.3ZM140.3,269.41c-54.89,0-99.54,44.64-99.54,99.54v3.24c0,54.89,44.64,99.54,99.54,99.54h45.86c54.89,0,99.54-44.64,99.54-99.54v-3.24c0-54.89-44.64-99.54-99.54-99.54h-45.86Z"/>
      <polygon class="cls-1" points="326.46 380.93 285.69 380.93 285.69 266.63 18.69 35.81 32.02 0 306.07 0 306.07 40.76 86.76 40.76 319.41 241.89 326.46 257.31 326.46 380.93"/>
    </g>
  </g>
</svg>