<?xml version="1.0" encoding="UTF-8"?>
<svg id="Layer_2" data-name="Layer 2" xmlns="http://www.w3.org/2000/svg" viewBox="0 0 305.96 278.73">
  <defs>
    <style>
      .cls-1 {
        fill: #231f20;
      }
    </style>
  </defs>
  <g id="text">
    <g>
      <path class="cls-1" d="M116.08,278.73c-36.5,0-70.06-14.43-92.03-39.57l30.69-26.83c14.03,16.06,36.96,25.64,61.34,25.64,41.12,0,74.56-26.49,74.56-59.03v-19.19H0l.78-60.21C.78,44.76,52.51,0,116.08,0s115.32,44.76,115.32,99.8v79.14c0,55.03-51.73,99.8-115.32,99.8ZM41.28,118.98h149.36v-19.19c0-32.54-33.44-59.03-74.56-59.03s-74.54,26.49-74.54,59.03l-.26,19.19Z"/>
      <path class="cls-1" d="M231.4,171.13h-40.76v-59.67c0-55.03,51.73-99.8,115.32-99.8v40.76c-41.12,0-74.56,26.49-74.56,59.03v59.67Z"/>
    </g>
  </g>
</svg>