<?xml version="1.0" encoding="UTF-8"?>
<svg id="Layer_2" data-name="Layer 2" xmlns="http://www.w3.org/2000/svg" viewBox="0 0 370.54 622.15">
  <defs>
    <style>
      .cls-1 {
        fill: #231f20;
      }
    </style>
  </defs>
  <g id="text">
    <g>
      <path class="cls-1" d="M185.28,516.65c-98.82,0-179.21-80.39-179.21-179.19v-158.25C6.07,80.39,86.46,0,185.28,0s179.19,80.39,179.19,179.21v158.25c0,98.8-80.39,179.19-179.19,179.19ZM185.28,40.76c-76.35,0-138.45,62.1-138.45,138.45v158.25c0,76.33,62.1,138.43,138.45,138.43s138.43-62.1,138.43-138.43v-158.25c0-76.35-62.1-138.45-138.43-138.45Z"/>
      <path class="cls-1" d="M.12,622.15l-.12-40.76,237.69-.8c50.81,0,92.09-41.3,92.09-92.05V0h40.76v488.54c0,73.24-59.57,132.82-132.8,132.82L.12,622.15Z"/>
    </g>
  </g>
</svg>