<?xml version="1.0" encoding="UTF-8"?>
<svg id="Layer_2" data-name="Layer 2" xmlns="http://www.w3.org/2000/svg" viewBox="0 0 221.33 248.63">
  <defs>
    <style>
      .cls-1 {
        fill: #231f20;
      }
    </style>
  </defs>
  <g id="text">
    <g>
      <path class="cls-1" d="M221.33,248.63h-40.76V97.96c0-31.01-43.35-57.2-94.68-57.2-20.6,0-40.26,4.1-56.86,11.86L11.74,15.72C33.72,5.43,59.35,0,85.88,0c75.95,0,135.44,43.03,135.44,97.96v150.67Z"/>
      <path class="cls-1" d="M221.33,248.63h-40.76v-52.27c0-18.39-27.73-38.87-67.49-38.87h-4.82c-39.77,0-67.49,20.48-67.49,38.87v52.27H0v-52.27c0-44.66,47.55-79.63,108.25-79.63h4.82c60.71,0,108.25,34.97,108.25,79.63v52.27Z"/>
    </g>
  </g>
</svg>