<?xml version="1.0" encoding="UTF-8"?>
<svg id="Layer_2" data-name="Layer 2" xmlns="http://www.w3.org/2000/svg" viewBox="0 0 457.84 516.65">
  <defs>
    <style>
      .cls-1 {
        fill: #231f20;
      }
    </style>
  </defs>
  <g id="text">
    <g>
      <path class="cls-1" d="M167.37,516.65C75.08,516.65,0,441.58,0,349.28v-181.92C0,75.08,75.08,0,167.37,0s167.35,75.08,167.35,167.37v181.92c0,92.29-75.08,167.37-167.35,167.37ZM167.37,40.76c-69.8,0-126.61,56.8-126.61,126.61v181.92c0,69.8,56.8,126.61,126.61,126.61s126.59-56.8,126.59-126.61v-181.92c0-69.8-56.78-126.61-126.59-126.61Z"/>
      <rect class="cls-1" x="306.53" y="237.95" width="130.92" height="40.76"/>
      <rect class="cls-1" x="417.08" y="24.74" width="40.76" height="467.19"/>
    </g>
  </g>
</svg>