<?xml version="1.0" encoding="UTF-8"?>
<svg id="Layer_2" data-name="Layer 2" xmlns="http://www.w3.org/2000/svg" viewBox="0 0 291.74 243.06">
  <defs>
    <style>
      .cls-1 {
        fill: #231f20;
      }
    </style>
  </defs>
  <g id="text">
    <path class="cls-1" d="M291.74,243.06h-92.97l-8.2-39.03,5.97-2.63c19.96-9.57,32.24-24.48,32.24-39.63v-70.56c0-16.2-13.39-27.81-21.38-33.3-15.92-10.91-38.35-17.16-61.54-17.16-45.02,0-83.06,23.11-83.06,50.46v70.56c0,15.15,12.28,30.05,32.84,39.89l5.37,2.37-8.2,39.03H0v-40.76h34.69c-8.22-12.38-12.64-26.17-12.64-40.52v-70.56C22.05,40.07,76.45,0,145.87,0c31.67,0,61.7,8.64,84.59,24.3,24.84,17.04,39.09,41.44,39.09,66.92v70.56c0,14.35-4.42,28.16-12.62,40.52h34.81v40.76Z"/>
  </g>
</svg>