<?xml version="1.0" encoding="UTF-8"?>
<svg id="Layer_2" data-name="Layer 2" xmlns="http://www.w3.org/2000/svg" viewBox="0 0 188.15 248.41">
  <defs>
    <style>
      .cls-1 {
        fill: #231f20;
      }
    </style>
  </defs>
  <g id="text">
    <g>
      <path class="cls-1" d="M105.91,248.41h-23.67C36.9,248.41,0,215.65,0,175.39l40.76-1.43c0,19.23,18.61,33.7,41.48,33.7h23.67c22.87,0,41.48-14.47,41.48-32.26l40.76-1.43v1.43c0,40.26-36.9,73.03-82.24,73.03Z"/>
      <polygon class="cls-1" points="188.15 179.23 147.38 179.23 147.38 135.26 14.29 37.38 38.45 4.54 179.85 108.53 188.15 124.95 188.15 179.23"/>
      <polygon class="cls-1" points="40.76 174.67 0 174.67 0 120.42 8.3 104 149.69 0 173.86 32.84 40.76 130.73 40.76 174.67"/>
    </g>
  </g>
</svg>