<?xml version="1.0" encoding="UTF-8"?>
<svg id="Layer_2" data-name="Layer 2" xmlns="http://www.w3.org/2000/svg" viewBox="0 0 490.14 487.57">
  <defs>
    <style>
      .cls-1 {
        fill: #231f20;
      }
    </style>
  </defs>
  <g id="text">
    <g>
      <path class="cls-1" d="M132.74,487.57C59.55,487.57,0,407.18,0,308.38V0h40.76v308.38c0,75.04,42.12,138.43,91.97,138.43s91.95-63.39,91.95-138.43V0h40.76v308.38c0,98.8-59.53,179.19-132.72,179.19Z"/>
      <path class="cls-1" d="M357.41,487.57c-73.18,0-132.72-80.39-132.72-179.19V0h40.76v308.38c0,75.04,42.12,138.43,91.95,138.43s91.97-63.39,91.97-138.43V0h40.76v308.38c0,98.8-59.55,179.19-132.74,179.19Z"/>
      <rect class="cls-1" x="449.38" y="317.38" width="40.76" height="152.14"/>
    </g>
  </g>
</svg>