<?xml version="1.0" encoding="UTF-8"?>
<svg id="Layer_2" data-name="Layer 2" xmlns="http://www.w3.org/2000/svg" viewBox="0 0 381.67 262.13">
  <defs>
    <style>
      .cls-1 {
        fill: #231f20;
      }
    </style>
  </defs>
  <g id="text">
    <g>
      <path class="cls-1" d="M105.61,261.11C47.37,261.11,0,215.26,0,158.91V0h40.76v158.91c0,33.88,29.1,61.44,64.85,61.44s64.85-27.57,64.85-61.44V0h40.76v158.91c0,56.35-47.37,102.2-105.61,102.2Z"/>
      <path class="cls-1" d="M276.06,261.11c-58.24,0-105.61-45.86-105.61-102.2V0h40.76v158.91c0,33.88,29.1,61.44,64.85,61.44s64.85-27.57,64.85-61.44V0h40.76v158.91c0,56.35-47.37,102.2-105.61,102.2Z"/>
      <rect class="cls-1" x="340.91" y="163.55" width="40.76" height="98.58"/>
    </g>
  </g>
</svg>