<?xml version="1.0" encoding="UTF-8"?>
<svg id="Layer_2" data-name="Layer 2" xmlns="http://www.w3.org/2000/svg" viewBox="0 0 289.97 487.57">
  <defs>
    <style>
      .cls-1 {
        fill: #231f20;
      }
    </style>
  </defs>
  <g id="text">
    <g>
      <path class="cls-1" d="M289.97,487.57h-40.76V179.19c0-76.33-62.1-138.43-138.43-138.43-28.34,0-55.59,8.5-78.78,24.58L8.76,31.87C38.81,11.01,74.1,0,110.78,0c98.8,0,179.19,80.39,179.19,179.19v308.38Z"/>
      <path class="cls-1" d="M289.97,487.57h-40.76v-106.98c0-55.63-45.26-100.89-100.89-100.89h-6.67c-55.63,0-100.89,45.26-100.89,100.89v106.98H0v-106.98c0-78.1,63.55-141.65,141.65-141.65h6.67c78.1,0,141.65,63.55,141.65,141.65v106.98Z"/>
    </g>
  </g>
</svg>