<?xml version="1.0" encoding="UTF-8"?>
<svg id="Layer_2" data-name="Layer 2" xmlns="http://www.w3.org/2000/svg" viewBox="0 0 242.54 415.6">
  <defs>
    <style>
      .cls-1 {
        fill: #231f20;
      }
    </style>
  </defs>
  <g id="text">
    <g>
      <path class="cls-1" d="M47.17,415.6l-.12-40.76,62.64-.2c50.81,0,92.09-41.28,92.09-92.03V0h40.76v282.61c0,73.22-59.57,132.8-132.8,132.8l-62.58.2Z"/>
      <path class="cls-1" d="M118.6,284.84C53.2,284.84,0,231.64,0,166.23v-46.61C0,54.22,53.2,1,118.6,1s118.62,53.22,118.62,118.62v46.61c0,65.4-53.22,118.6-118.62,118.6ZM118.6,41.76c-42.93,0-77.84,34.93-77.84,77.86v46.61c0,42.93,34.91,77.84,77.84,77.84s77.86-34.91,77.86-77.84v-46.61c0-42.93-34.93-77.86-77.86-77.86Z"/>
    </g>
  </g>
</svg>