<?xml version="1.0" encoding="UTF-8"?>
<svg id="Layer_2" data-name="Layer 2" xmlns="http://www.w3.org/2000/svg" viewBox="0 0 326.46 517.91">
  <defs>
    <style>
      .cls-1 {
        fill: #231f20;
      }
    </style>
  </defs>
  <g id="text">
    <g>
      <path class="cls-1" d="M186.16,517.91h-45.86C62.93,517.91,0,454.97,0,377.61v-3.24h40.76v3.24c0,54.89,44.64,99.54,99.54,99.54h45.86c54.89,0,99.54-44.64,99.54-99.54v-3.24h40.76v3.24c0,77.36-62.93,140.3-140.3,140.3Z"/>
      <polygon class="cls-1" points="326.46 386.34 285.69 386.34 285.69 272.04 18.69 41.22 45.36 10.37 319.41 247.3 326.46 262.72 326.46 386.34"/>
      <polygon class="cls-1" points="40.76 375.98 0 375.98 0 252.36 7.05 236.93 281.1 0 307.77 30.85 40.76 261.67 40.76 375.98"/>
    </g>
  </g>
</svg>