<?xml version="1.0" encoding="UTF-8"?>
<svg id="Layer_2" data-name="Layer 2" xmlns="http://www.w3.org/2000/svg" viewBox="0 0 221.21 252.26">
  <defs>
    <style>
      .cls-1 {
        fill: #231f20;
      }
    </style>
  </defs>
  <g id="text">
    <g>
      <path class="cls-1" d="M146.33,252.26h-71.45C33.6,252.26,0,218.66,0,177.38s33.6-74.88,74.88-74.88h71.45c41.28,0,74.88,33.6,74.88,74.88s-33.6,74.88-74.88,74.88ZM74.88,143.26c-18.81,0-34.11,15.31-34.11,34.11s15.31,34.11,34.11,34.11h71.45c18.81,0,34.11-15.31,34.11-34.11s-15.31-34.11-34.11-34.11h-71.45Z"/>
      <polygon class="cls-1" points="221.21 182.02 180.44 182.02 180.44 138.01 17.06 37.76 27.73 0 200.83 0 200.83 40.76 99.9 40.76 211.49 109.23 221.21 126.61 221.21 182.02"/>
    </g>
  </g>
</svg>