<?xml version="1.0" encoding="UTF-8"?>
<svg id="Layer_2" data-name="Layer 2" xmlns="http://www.w3.org/2000/svg" viewBox="0 0 497.9 516.65">
  <defs>
    <style>
      .cls-1 {
        fill: #231f20;
      }
    </style>
  </defs>
  <g id="text">
    <g>
      <path class="cls-1" d="M180.28,516.65c-56.96,0-111.08-27.49-144.76-73.52l32.88-24.08c26.03,35.59,67.87,56.84,111.88,56.84,76.33,0,138.43-62.1,138.43-138.43v-58.75H0l1.07-99.72C1.07,80.39,81.46,0,180.28,0s179.19,80.39,179.19,179.21v158.25c0,98.8-80.39,179.19-179.19,179.19ZM41.2,237.95h277.51v-58.73c0-76.35-62.1-138.45-138.43-138.45S41.84,102.86,41.84,179.21l-.64,58.73Z"/>
      <path class="cls-1" d="M359.48,321.88h-40.76v-119.36c0-98.8,80.39-179.19,179.19-179.19v40.76c-76.33,0-138.43,62.1-138.43,138.43v119.36Z"/>
    </g>
  </g>
</svg>