<?xml version="1.0" encoding="UTF-8"?>
<svg id="Layer_2" data-name="Layer 2" xmlns="http://www.w3.org/2000/svg" viewBox="0 0 240.15 276.28">
  <defs>
    <style>
      .cls-1 {
        fill: #231f20;
      }
    </style>
  </defs>
  <g id="text">
    <g>
      <path class="cls-1" d="M90.64,276.28C40.66,276.28,0,235.62,0,185.64v-95C0,40.66,40.66,0,90.64,0s90.64,40.66,90.64,90.64v95c0,49.98-40.66,90.64-90.64,90.64ZM90.64,40.76c-27.51,0-49.88,22.37-49.88,49.88v95c0,27.51,22.37,49.88,49.88,49.88s49.88-22.37,49.88-49.88v-95c0-27.51-22.37-49.88-49.88-49.88Z"/>
      <rect class="cls-1" x="157.18" y="117.77" width="62.6" height="40.76"/>
      <rect class="cls-1" x="199.39" y="22.53" width="40.76" height="231.22"/>
    </g>
  </g>
</svg>