<?xml version="1.0" encoding="UTF-8"?>
<svg id="Layer_2" data-name="Layer 2" xmlns="http://www.w3.org/2000/svg" viewBox="0 0 448.38 494.24">
  <defs>
    <style>
      .cls-1 {
        fill: #231f20;
      }
    </style>
  </defs>
  <g id="text">
    <path class="cls-1" d="M448.38,494.24h-142.89l-11.05-37.52,9.18-5.91c36.68-25.62,58.95-68.21,58.95-113.51v-158.17c0-37-14.39-71.77-40.5-97.88-26.11-26.11-60.86-40.48-97.88-40.48-76.43,0-138.61,62.08-138.61,138.37v158.17c0,45.3,22.27,87.89,59.57,113.93l8.56,5.49-11.05,37.52H0v-40.76h87.65c-27.41-32.26-42.83-73.28-42.83-116.18v-158.17C44.82,80.35,125.29,0,224.19,0c47.91,0,92.91,18.61,126.71,52.43,33.82,33.82,52.45,78.82,52.45,126.71v158.17c0,42.97-15.46,84.05-42.73,116.18h87.77v40.76Z"/>
  </g>
</svg>